<svg style="position: absolute; width: 0; height: 0; overflow: hidden;" version="1.1" xmlns="http://www.w3.org/2000/svg" xmlns:xlink="http://www.w3.org/1999/xlink">
<defs>
<symbol id="icon-pointer" viewBox="0 0 128 128">
<path class="path1" d="M54.094 128l-14.094-7.562 29.914-56.438-29.914-56.437 14.094-7.563 33.906 64z"></path>
</symbol>
<symbol id="icon-arrow-left" viewBox="0 0 128 128">
<path class="path1" d="M24.972 70.423l46.789 46.768-7.761 7.809-60-60.027 60-59.973 7.761 7.756-46.789 46.768h99.028v10.899z"></path>
</symbol>
<symbol id="icon-arrow-right" viewBox="0 0 128 128">
<path class="path1" d="M104.028 70.423l-46.789 46.768 7.761 7.809 60-60.027-60-59.973-7.761 7.756 46.789 46.768h-99.028v10.899z"></path>
</symbol>
<symbol id="icon-link" viewBox="0 0 128 128">
<path class="path1" d="M92.157 117.614c6.804 0 13.202-2.619 18.042-7.433 9.905-9.955 9.905-26.133 0-36.108l-2.543-2.548c1.262-3.932 2.092-8.012 2.471-12.169l7.383 7.408c13.986 13.983 13.986 36.765 0 50.728-6.778 6.777-15.776 10.508-25.353 10.508-9.603 0-18.605-3.731-25.357-10.509l-16.283-16.28c-3.374-3.378-6.024-7.279-7.809-11.642-1.789-4.337-2.696-8.945-2.728-13.682 0.031-2.696 0.308-5.372 0.887-7.94 0.072-0.302 0.149-0.63 0.226-0.979 1.615-6.203 4.866-11.898 9.449-16.486 1.189-1.21 2.497-2.343 3.887-3.378l3.398 3.409c2.016 2.009 2.016 5.29 0 7.299-4.69 4.665-7.356 10.918-7.485 17.573-0.128 7.022 2.549 13.604 7.485 18.516l16.283 16.28c4.835 4.814 11.244 7.433 18.047 7.433z"></path>
<path class="path2" d="M19.894 70.618l-7.357-7.381c-6.805-6.777-10.537-15.779-10.537-25.354s3.732-18.598 10.536-25.375c6.783-6.776 15.78-10.508 25.358-10.508s18.575 3.732 25.354 10.508l16.282 16.25c3.399 3.429 6.020 7.361 7.788 11.646 0.528 1.333 1.005 2.696 1.41 4.132l0.153 0.579c0.779 2.979 1.159 5.998 1.159 9.048 0 2.194-0.205 4.383-0.656 6.756l-0.251 1.23c-1.461 6.531-4.794 12.548-9.604 17.362-1.24 1.235-2.543 2.368-3.906 3.404l-3.404-3.378c-2.020-2.041-2.020-5.316 0-7.361 9.905-9.95 9.905-26.123 0-36.057l-16.304-16.301c-4.819-4.793-11.248-7.433-18.021-7.433-6.834 0-13.232 2.64-18.052 7.433-9.926 9.955-9.926 26.153 0 36.108l2.554 2.542c-1.288 3.933-2.124 8.018-2.502 12.15z"></path>
</symbol>
<symbol id="icon-menu" viewBox="0 0 128 128">
<path class="path1" d="M1 6.25h126v10.5h-126v-10.5z"></path>
<path class="path2" d="M1 111.25h126v10.5h-126v-10.5z"></path>
<path class="path3" d="M1 58.75h126v10.5h-126v-10.5z"></path>
</symbol>
<symbol id="icon-quote" viewBox="0 0 128 128">
<path class="path1" d="M56.997 36.433c0-15.222-12.53-27.558-27.993-27.558-15.469 0-28.004 12.335-28.004 27.558 0 15.221 12.535 27.567 28.003 27.567v55.125l27.994-82.692z"></path>
<path class="path2" d="M127 36.433c0-15.222-12.535-27.558-28.004-27.558-15.463 0-27.992 12.335-27.992 27.558 0 15.221 12.529 27.567 27.992 27.567v55.125l28.004-82.692z"></path>
</symbol>
<symbol id="icon-search" viewBox="0 0 128 128">
<path class="path1" d="M96.402 103.796c-22.594 18.852-56.361 17.704-77.562-3.496-22.456-22.451-22.451-59.028 0-81.474 22.447-22.456 58.976-22.426 81.423 0.031 21.206 21.205 22.38 54.941 3.527 77.541l24.21 24.21-7.393 7.394-24.205-24.206zM26.259 92.87c18.355 18.355 48.225 18.386 66.616 0 18.345-18.354 18.345-48.266 0-66.615-18.391-18.391-48.261-18.354-66.616 0-18.38 18.38-18.38 48.23 0 66.615z"></path>
</symbol>
<symbol id="icon-close" viewBox="0 0 128 128">
<polygon points="120.463,2 128,9.519 72.52,65.004 128,120.463 120.463,128 64.99,72.533 9.519,128 2,120.463 57.463,65.004 	2,9.519 9.519,2.009 64.99,57.469 "/>
</symbol>
<symbol id="icon-social-behance" viewBox="0 0 128 128">
<path class="path1" d="M115.557 35.322h-32.064v-8.002h32.063v8.002h0.001zM62.15 68.135c4.277 8.188 4.132 16.35-0.436 24.484-5.602 9.246-15.847 11.381-25.858 11.381h-35.856v-80h38.45c9.694 0.159 16.563 2.98 20.621 8.521 2.435 3.398 3.64 7.477 3.64 12.215 0 4.892-1.222 8.805-3.679 11.777-1.366 1.667-3.388 3.185-6.062 4.552 4.051 1.493 7.125 3.837 9.18 7.070 2.068 3.219-2.055-3.233 0 0 2.068 3.219-2.055-3.233 0 0zM18.363 55.541h16.847c3.46 0 6.262-0.662 8.417-1.982 2.152-1.321 3.227-3.667 3.227-7.035 0-3.721-1.421-6.191-4.276-7.379-2.452-0.826-5.59-1.252-9.397-1.252h-14.818v17.648zM48.477 78.711c0-4.156-1.691-7.029-5.065-8.57-1.885-0.875-4.548-1.322-7.961-1.354h-17.088v21.319h16.825c3.454 0 6.131-0.455 8.061-1.402 3.481-1.746 5.228-5.065 5.228-9.993zM127.939 77.074h-41.519c0.898 9.478 5.625 14.225 14.182 14.244 5.311 0.033 9.090-2.153 11.338-6.561h15.219c-0.399 3.398-2.232 6.852-5.522 10.357-5.104 5.568-12.26 8.363-21.448 8.363-7.592 0-14.283-2.355-20.090-7.053-5.79-4.709-8.699-12.352-8.699-22.953 0-9.942 2.611-17.55 7.849-22.847 5.257-5.306 12.040-7.947 20.401-7.947 9.721-0.345 17.473 3.376 23.254 11.167 4.037 7.394 5.414 12.301 5.035 23.23zM112.473 67.189c-0.281-3.982-1.605-6.999-3.986-9.058-5.945-4.198-11.857-4.137-17.734 0.184-2.115 2.174-3.436 5.131-3.975 8.874h25.695z"></path>
</symbol>
<symbol id="icon-social-delicious" viewBox="0 0 128 128">
<path class="path1" d="M64 4h60v60h-60v-60z"></path>
<path class="path2" d="M4 64h60v60h-60v-60z"></path>
<path class="path3" d="M4 4h59.994v8h-51.994v51.994h-8v-59.994z"></path>
<path class="path4" d="M124 124h-60v-8h52v-52h8v60z"></path>
</symbol>
<symbol id="icon-social-digg" viewBox="0 0 128 128">
<path class="path1" d="M13.123 72.314h6.024v-16.674h-6.024v16.674zM0 43.992h19.147v-16.992h13.119v57.008h-32.266v-40.016zM51.414 38.645h-13.121v-11.645h13.121v11.645zM51.414 84.008h-13.121v-40.016h13.121v40.016zM70.562 72.314h6.024v-16.674h-6.024v16.674zM57.439 101v-11.646h19.147v-5.347h-19.147v-40.015h32.268v57.008h-32.268zM108.853 72.314h6.025v-16.674h-6.025v16.674zM95.733 101v-11.646h19.145v-5.347h-19.145v-40.015h32.267v57.008h-32.267z"></path>
</symbol>
<symbol id="icon-social-dribbble" viewBox="0 0 128 128">
<path class="path1" d="M63.997 0c-35.346 0.003-63.997 28.655-63.997 64.003 0 35.342 28.651 63.997 63.997 63.997 35.348 0 63.999-28.655 64.003-63.997-0.004-35.348-28.655-64-64.003-64.003zM103.211 33.183c6.244 7.929 10.154 17.748 10.647 28.47-7.225-1.533-14.052-2.28-20.415-2.28v-0.001h-0.048c-5.123 0-9.932 0.465-14.464 1.269-1.102-2.699-2.218-5.292-3.343-7.776 10.094-4.427 19.781-10.73 27.623-19.682zM63.997 14.070c11.778 0 22.582 4.117 31.137 10.972-6.546 7.837-15.187 13.512-24.521 17.52-6.557-12.682-12.895-21.754-17.227-27.3 3.429-0.762 6.969-1.192 10.611-1.192zM41.943 19.275c3.466 4.094 10.405 13.098 17.816 27.156-15.073 4.487-30.25 5.541-39.434 5.538-0.262 0-0.521 0-0.775-0.002h-0.008c-1.546 0-2.876-0.024-3.987-0.059 3.583-14.336 13.404-26.209 26.388-32.633zM14.066 64.003c0-0.235 0.008-0.474 0.022-0.72 1.425 0.053 3.254 0.098 5.455 0.098h0.013c10.037-0.065 27.561-0.904 45.321-6.511 0.967 2.117 1.926 4.321 2.873 6.609-11.86 3.966-21.201 10.287-28.11 16.58-6.65 6.058-11.145 12.058-13.77 16.063-7.347-8.698-11.8-19.878-11.804-32.119zM63.997 113.937c-11.112 0-21.354-3.676-29.662-9.842 1.766-2.908 5.552-8.492 11.581-14.262 6.204-5.944 14.767-12.063 25.947-15.705 3.801 10.652 7.239 22.83 9.859 36.539-5.518 2.101-11.48 3.27-17.725 3.27zM92.257 105.069c-2.533-12.397-5.718-23.576-9.215-33.553 3.243-0.466 6.646-0.728 10.24-0.728h0.146c5.956 0 12.5 0.74 19.598 2.353-2.458 13.204-10.105 24.574-20.769 31.928z"></path>
</symbol>
<symbol id="icon-social-ello" viewBox="0 0 128 128">
<path class="path1" d="M63.994 4c33.143 0 60.006 26.874 60.006 60 0 33.14-26.863 60-60.006 60-33.131 0-59.994-26.86-59.994-60 0-33.126 26.863-60 59.994-60zM98.82 73.004c0.477-1.834-0.629-3.705-2.463-4.182-0.289-0.074-0.577-0.111-0.862-0.111-1.525 0-2.918 1.029-3.318 2.584-3.316 12.86-14.908 21.851-28.183 21.851s-24.867-8.99-28.183-21.851c-0.402-1.555-1.785-2.584-3.308-2.584-0.284 0-0.573 0.037-0.862 0.111-1.833 0.477-2.938 2.348-2.474 4.182 4.106 15.896 18.423 26.998 34.826 26.998 16.415 0 30.733-11.102 34.827-26.998z"></path>
</symbol>
<symbol id="icon-social-email" viewBox="0 0 128 128">
<path class="path1" d="M122.594 13.459l-57.594 43.189-57.594-43.189h57.594z"></path>
<path class="path2" d="M65 79.073l63-47.25v84.718h-126v-84.718z"></path>
</symbol>
<symbol id="icon-social-facebook" viewBox="0 0 128 128">
<path class="path1" d="M46.793 44.129v-12.13c0.027-16.531 12.337-31.578 30.040-31.999h20.167v24.050h-20.167c-3.414 1.253-5.058 3.764-4.938 7.532v12.547h25.105l-4.376 24.471h-20.729v59.4h-25.102v-59.4h-15.793v-24.471h15.793z"></path>
</symbol>
<symbol id="icon-social-flickr" viewBox="0 0 128 128">
<path class="path1" d="M60 64c0 16.569-13.431 30-30 30s-30-13.431-30-30c0-16.569 13.431-30 30-30s30 13.431 30 30z"></path>
<path class="path2" d="M128 64c0 16.569-13.431 30-30 30s-30-13.431-30-30c0-16.569 13.431-30 30-30s30 13.431 30 30z"></path>
</symbol>
<symbol id="icon-social-github" viewBox="0 0 128 128">
<path class="path1" d="M64.001 5.103c-33.347 0-60.388 27.035-60.388 60.387 0 26.682 17.303 49.316 41.297 57.303 3.018 0.559 4.126-1.311 4.126-2.906 0-1.438-0.056-6.197-0.082-11.242-16.8 3.652-20.345-7.125-20.345-7.125-2.747-6.979-6.705-8.836-6.705-8.836-5.479-3.748 0.413-3.672 0.413-3.672 6.063 0.426 9.257 6.225 9.257 6.225 5.386 9.23 14.127 6.563 17.573 5.021 0.542-3.9 2.105-6.566 3.834-8.074-13.413-1.525-27.514-6.705-27.514-29.846 0-6.592 2.359-11.979 6.223-16.208-0.627-1.521-2.694-7.663 0.585-15.981 0 0 5.071-1.622 16.61 6.191 4.816-1.338 9.982-2.009 15.115-2.033 5.13 0.023 10.3 0.694 15.126 2.033 11.526-7.813 16.59-6.191 16.59-6.191 3.287 8.318 1.222 14.46 0.595 15.981 3.871 4.229 6.215 9.617 6.215 16.208 0 23.195-14.127 28.303-27.573 29.797 2.166 1.873 4.096 5.551 4.096 11.184 0 8.080-0.069 14.584-0.069 16.572 0 1.605 1.088 3.488 4.147 2.896 23.979-7.994 41.263-30.623 41.263-57.295-0.003-33.354-27.040-60.389-60.389-60.389z"></path>
</symbol>
<symbol id="icon-social-google-plus-1" viewBox="0 0 128 128">
<path class="path1" d="M41.576 55.767v16.466c0 0 15.973-0.021 22.477-0.021-3.521 10.674-8.998 16.487-22.477 16.487-13.64 0-24.286-11.058-24.286-24.699s10.646-24.699 24.287-24.699c7.212 0 11.87 2.535 16.143 6.068 3.42-3.42 3.134-3.908 11.834-12.125-7.385-6.723-17.202-10.821-27.977-10.821-22.962 0.001-41.577 18.615-41.577 41.577s18.615 41.576 41.576 41.576c34.322 0 42.71-29.885 39.931-49.809-8.126 0-39.931 0-39.931 0zM113.417 56.571v-14.584h-10.417v14.583h-15v10.417h15v15.001h10.417v-15.001h14.583v-10.416h-14.583z"></path>
</symbol>
<symbol id="icon-social-instagram" viewBox="0 0 128 128">
<path class="path1" d="M64 11.531c17.089 0 19.113 0.065 25.861 0.373 6.24 0.285 9.629 1.327 11.884 2.204 2.987 1.161 5.12 2.548 7.359 4.787s3.626 4.372 4.787 7.359c0.877 2.255 1.919 5.644 2.204 11.884 0.308 6.748 0.373 8.772 0.373 25.861s-0.065 19.113-0.373 25.861c-0.285 6.24-1.327 9.629-2.204 11.884-1.161 2.987-2.548 5.119-4.787 7.359s-4.372 3.626-7.359 4.787c-2.255 0.876-5.644 1.919-11.884 2.203-6.747 0.309-8.771 0.374-25.861 0.374s-19.114-0.065-25.861-0.374c-6.24-0.284-9.629-1.327-11.884-2.203-2.987-1.161-5.12-2.548-7.359-4.787s-3.626-4.372-4.788-7.359c-0.876-2.255-1.919-5.644-2.204-11.884-0.308-6.748-0.373-8.772-0.373-25.861s0.065-19.113 0.373-25.861c0.285-6.24 1.327-9.629 2.204-11.884 1.161-2.987 2.548-5.12 4.788-7.359s4.372-3.626 7.359-4.787c2.255-0.877 5.644-1.919 11.884-2.204 6.748-0.307 8.773-0.373 25.861-0.373zM64 0c-17.381 0-19.561 0.073-26.387 0.385-6.812 0.311-11.464 1.392-15.535 2.975-4.208 1.635-7.778 3.823-11.335 7.382-3.559 3.558-5.747 7.127-7.383 11.335-1.583 4.071-2.664 8.724-2.975 15.536-0.311 6.826-0.385 9.005-0.385 26.387s0.074 19.561 0.385 26.387c0.311 6.813 1.393 11.465 2.975 15.536 1.635 4.208 3.824 7.777 7.382 11.335s7.127 5.746 11.335 7.382c4.071 1.582 8.723 2.664 15.536 2.975 6.826 0.312 9.006 0.385 26.387 0.385 17.382 0 19.561-0.073 26.388-0.386 6.812-0.311 11.464-1.393 15.535-2.975 4.208-1.636 7.777-3.823 11.336-7.382 3.558-3.558 5.746-7.127 7.382-11.335 1.582-4.071 2.664-8.724 2.975-15.536 0.311-6.825 0.384-9.004 0.384-26.386s-0.073-19.561-0.385-26.387c-0.311-6.813-1.393-11.465-2.975-15.536-1.636-4.208-3.824-7.777-7.382-11.335-3.559-3.559-7.128-5.747-11.336-7.382-4.071-1.583-8.724-2.664-15.535-2.976-6.826-0.311-9.005-0.384-26.387-0.384v0z"></path>
<path class="path2" d="M64 31.135c-18.15 0-32.865 14.714-32.865 32.865s14.714 32.864 32.865 32.864 32.865-14.714 32.865-32.864c0-18.151-14.714-32.865-32.865-32.865zM64 85.333c-11.782 0-21.333-9.551-21.333-21.333s9.551-21.333 21.333-21.333 21.334 9.551 21.334 21.333-9.552 21.333-21.334 21.333z"></path>
<path class="path3" d="M105.844 29.837c0 4.241-3.439 7.68-7.68 7.68s-7.68-3.438-7.68-7.68c0-4.242 3.439-7.68 7.68-7.68s7.68 3.439 7.68 7.68z"></path>
</symbol>
<symbol id="icon-social-lastfm" viewBox="0 0 128 128">
<path class="path1" d="M38.355 25.521c7.975 0 15.077 2.109 21.306 6.273 6.206 4.172 10.914 9.995 14.089 17.401 0.182 0.375 0.67 1.463 1.452 3.292 0.794 1.836 1.747 4.104 2.87 6.805 1.146 2.722 2.403 5.719 3.813 9.032 1.396 3.325 2.778 6.544 4.185 9.688 1.714 3.789 3.606 6.83 5.651 9.119 1.927 2.19 5.127 3.417 9.778 3.6 0.544 0.031 1.066 0.055 1.587 0.055 3.688 0 6.729-1.068 9.213-3.178 2.859-2.447 4.208-5.239 4.219-8.552-0.011-3.37-1.086-5.503-3.221-6.784-2.303-1.361-5.457-2.744-9.415-4.127-7.555-2.464-13.242-5.177-17.086-8.227-3.948-3.099-5.888-7.794-5.888-13.852 0-5.898 1.907-10.731 5.705-14.338 3.792-3.62 8.964-5.414 15.408-5.414 8.189 0 14.576 3.836 18.842 11.313l0.33 0.578-9.199 4.752-0.331-0.43c-2.892-3.903-6.239-5.766-10.208-5.766-2.836 0-5.096 0.854-6.889 2.565-1.805 1.737-2.688 3.846-2.697 6.479 0.010 1.836 0.416 3.255 1.199 4.331 0.818 1.138 1.896 2.078 3.313 2.836 1.453 0.75 3.165 1.487 5.151 2.167 1.984 0.706 4.208 1.398 6.635 2.091l-0.167 0.611 0.206-0.602c6.669 2.302 11.649 4.935 14.893 7.998 3.313 3.119 4.912 7.859 4.901 14.078 0.011 6.611-2.495 12.127-7.419 16.322-4.922 4.222-11.151 6.311-18.596 6.311-6.738 0-12.137-1.602-16.118-4.867-3.948-3.201-7.136-7.659-9.62-13.331l-1.294-3.141-12.060-27.5c-1.87-4.766-5.047-8.578-9.574-11.482-4.527-2.901-9.493-4.344-14.963-4.344-3.767 0-7.248 0.716-10.483 2.167-3.253 1.453-6.112 3.37-8.586 5.763s-4.391 5.185-5.75 8.417c-1.354 3.245-2.044 6.75-2.044 10.495 0 3.597 0.69 7 2.044 10.231 1.359 3.248 3.276 6.084 5.75 8.565 2.474 2.474 5.333 4.394 8.575 5.753 3.246 1.372 6.727 2.041 10.494 2.041 5.129 0 9.759-1.271 13.931-3.836 4.188-2.549 7.456-6.021 9.859-10.492l0.635-1.169 5.366 12.831-0.238 0.317c-3.539 4.256-7.862 7.67-12.909 10.236-5.061 2.586-10.62 3.878-16.645 3.878-5.319 0-10.345-1.021-15.053-3.073-4.685-2.028-8.769-4.797-12.241-8.247-3.45-3.461-6.173-7.5-8.122-12.117-1.953-4.629-2.939-9.585-2.939-14.918 0-5.31 0.986-10.323 2.939-15.031 1.949-4.695 4.664-8.781 8.122-12.24 3.473-3.461 7.556-6.242 12.241-8.26 4.708-2.042 9.735-3.073 15.053-3.073z"></path>
</symbol>
<symbol id="icon-social-line" viewBox="0 0 128 128">
<path class="path1" d="M122.873 69.129c2.829 0 5.127-2.301 5.127-5.127 0-2.829-2.298-5.128-5.127-5.128h-14.303v-9.177h14.303c2.829 0 5.127-2.3 5.127-5.127 0-2.829-2.298-5.128-5.127-5.128h-19.436c-2.824 0-5.123 2.299-5.123 5.128v38.86c0 2.83 2.302 5.129 5.123 5.129h19.436c2.824 0 5.127-2.299 5.127-5.129 0-2.826-2.303-5.127-5.127-5.127h-14.303v-9.174h14.303z"></path>
<path class="path2" d="M86.304 39.441c-2.826 0-5.128 2.299-5.128 5.128v24.042l-19.918-27.117c-0.962-1.288-2.493-2.053-4.098-2.053-0.548 0-1.1 0.085-1.627 0.263-2.098 0.701-3.503 2.655-3.503 4.865v38.86c0 2.83 2.298 5.129 5.127 5.129s5.127-2.299 5.127-5.129v-24.040l19.913 27.119c0.968 1.285 2.5 2.051 4.098 2.051 0.553 0 1.101-0.088 1.631-0.266 2.1-0.693 3.503-2.65 3.503-4.863v-38.86c0-2.83-2.299-5.129-5.125-5.129z"></path>
<path class="path3" d="M39.53 39.441c-2.83 0-5.127 2.299-5.127 5.128v38.86c0 2.83 2.298 5.129 5.127 5.129 2.825 0 5.126-2.299 5.126-5.129v-38.86c0-2.829-2.301-5.128-5.126-5.128z"></path>
<path class="path4" d="M24.558 78.303h-14.305v-33.734c0-2.829-2.296-5.128-5.125-5.128s-5.128 2.299-5.128 5.128v38.86c0 2.83 2.298 5.129 5.127 5.129h19.431c2.829 0 5.125-2.299 5.125-5.129 0.001-2.825-2.296-5.126-5.125-5.126z"></path>
</symbol>
<symbol id="icon-social-linkedin" viewBox="0 0 128 128">
<path class="path1" d="M22.745 0c4.368 0 8.054 1.543 11.068 4.629 3.006 3.087 4.513 6.81 4.513 11.177 0 4.365-1.507 8.051-4.513 11.060-3.014 3.012-6.7 4.513-11.068 4.513-4.365 0-8.007-1.501-10.946-4.513-2.935-3.009-4.399-6.695-4.399-11.059 0-4.368 1.464-8.090 4.398-11.177 2.94-3.087 6.582-4.63 10.947-4.63zM10.107 128v-87.363h25.285v87.363h-25.285zM72.864 40.637v4.061c4.813-2.405 10.233-3.46 16.253-3.16 6.019 0.308 11.44 1.659 16.26 4.067 5.112 2.859 9.215 6.993 12.303 12.413 3.078 5.42 4.622 10.985 4.622 16.706v53.276h-24.832v-53.276c0-1.202-0.447-2.634-1.354-4.287-0.901-1.66-1.881-2.634-2.933-2.939-2.56-1.354-5.045-1.879-7.454-1.58-2.405 0.307-4.591 0.905-6.543 1.807-2.256 1.053-4.369 2.485-6.321 4.294v55.981h-25.286v-87.363h25.285z"></path>
</symbol>
<symbol id="icon-social-pinterest" viewBox="0 0 128 128">
<path class="path1" d="M43.631 120c2.844-4.813 5.195-10.508 7.062-17.078 1.859-6.57 3.563-13.031 5.094-19.383 0.383-0.227 0.727-0.344 1.031-0.344 0.563 0 0.984 0.391 1.273 1.164 0.43 1.211 0.977 2.031 1.641 2.469 2.625 1.969 5.633 3.234 9.023 3.773 1.703 0.273 3.406 0.406 5.141 0.406 1.719 0 3.453-0.133 5.203-0.406 3.5-0.539 6.844-1.531 10.031-2.961 3.172-1.406 5.734-3.008 7.719-4.75 5.906-5.047 10.188-11.992 12.813-20.867 2.617-8.867 3.5-17.352 2.617-25.453-0.43-4.602-1.805-8.922-4.102-12.977-2.297-4.047-5.148-7.719-8.531-11.008-3.406-3.281-7.344-5.961-11.844-8.039-4.477-2.078-9.133-3.461-13.945-4.109-2.554-0.289-5.070-0.437-7.539-0.437-4.969 0-9.797 0.586-14.484 1.75-7 1.758-13.187 4.656-18.546 8.703-5.375 4.055-9.688 9.039-12.969 14.945-3.281 5.914-4.93 12.594-4.93 20.031 0 7.023 1.258 12.813 3.773 17.414 2.508 4.594 6.844 8.109 12.969 10.516 2.195-2.188 3.344-4.164 3.461-5.922 0.102-1.742-0.289-3.547-1.148-5.414-0.883-1.859-1.875-3.727-2.953-5.578-1.109-1.859-1.758-3.992-1.984-6.414-0.656-6.125 0.5-12.094 3.453-17.898 2.953-5.797 7.063-10.508 12.32-14.125 5.257-3.602 11.164-5.75 17.742-6.398 0.938-0.094 1.883-0.148 2.828-0.148 5.617 0 11.25 1.695 16.883 5.070 4.586 2.625 7.867 7.164 9.844 13.641 1.961 6.453 2.625 13.086 1.961 19.859-0.648 6.797-2.563 12.984-5.734 18.563-3.188 5.594-7.508 8.93-12.969 10.016-1.078 0.203-2.148 0.297-3.203 0.297-1.305 0-2.594-0.156-3.875-0.453-2.289-0.555-3.992-1.375-5.094-2.469-2.617-2.625-3.711-5.578-3.281-8.859 0.453-3.289 1.313-6.789 2.641-10.523 1.313-3.719 2.508-7.492 3.602-11.328 1.109-3.836 0.883-7.609-0.648-11.328-1.313-3.070-3.125-4.867-5.422-5.422-0.766-0.18-1.539-0.273-2.313-0.273-1.563 0-3.141 0.367-4.75 1.102-2.422 1.094-4.546 2.836-6.406 5.242-1.859 2.422-3.008 5.047-3.453 7.883-0.438 3.070-0.211 5.969 0.656 8.703 0.875 2.742 1.32 5.422 1.32 8.055 0 3.078-0.383 6.359-1.148 9.844-0.781 3.516-1.703 7.063-2.797 10.68s-2.188 7.18-3.281 10.68c-1.102 3.508-1.867 6.789-2.297 9.859-0.453 2.406-0.781 5.695-1 9.844-0.211 4.164 0 7.453 0.672 9.859l2.188 8 5.685-8.004z"></path>
</symbol>
<symbol id="icon-social-pocket" viewBox="0 0 128 128">
<path class="path1" d="M116.545 6.727c6.326 0 11.455 5.129 11.455 11.455v40.091c0 34.794-28.207 63.001-63 63.001s-63-28.207-63-63.001v-40.091c0-6.327 5.129-11.455 11.455-11.455h103.090zM101.448 54.020c3.353-3.355 3.353-8.794 0-12.15-1.679-1.678-3.876-2.517-6.075-2.517s-4.396 0.839-6.075 2.517l-24.298 24.298-24.298-24.299c-1.679-1.678-3.877-2.517-6.076-2.517s-4.397 0.839-6.075 2.517c-3.356 3.356-3.356 8.795 0 12.15l30.375 30.372c1.676 1.679 3.875 2.518 6.074 2.518 2.198 0 4.396-0.839 6.073-2.518l30.375-30.371z"></path>
</symbol>
<symbol id="icon-social-print" viewBox="0 0 128 128">
<path class="path1" d="M112.25 41.375c8.702 0 15.75 7.048 15.75 15.75v55.125h-15.75v15.75h-94.5v-15.75h-15.75v-55.125c0-8.702 7.048-15.75 15.75-15.75v-39.375h94.5v39.375zM96.5 96.5c4.347 0 7.875-3.528 7.875-7.875s-3.528-7.875-7.875-7.875h-63c-4.347 0-7.875 3.528-7.875 7.875s3.528 7.875 7.875 7.875v15.75h63v-15.75zM33.5 17.75v23.625h63v-23.625h-63z"></path>
</symbol>
<symbol id="icon-social-reddit" viewBox="0 0 128 128">
<path class="path1" d="M82.824 64.263c4.417 0 7.999 3.578 7.999 8.003 0 4.413-3.582 7.995-7.999 7.995-4.414 0-8-3.582-8-7.995 0-4.425 3.586-8.003 8-8.003z"></path>
<path class="path2" d="M53.207 72.266c0 4.413-3.582 7.995-7.996 7.995-4.424 0-8.006-3.582-8.006-7.995 0-4.425 3.582-8.003 8.006-8.003 4.414 0 7.996 3.578 7.996 8.003z"></path>
<path class="path3" d="M75.797 20.675l-6.246 19.742c12.341 0.828 23.854 4.281 33.009 9.947 2.671-2.070 6.019-3.301 9.651-3.301 8.704 0 15.789 7.085 15.789 15.789 0 5.472-2.798 10.3-7.038 13.133 0.115 1.019 0.173 2.044 0.173 3.081 0 10.703-6.199 20.643-17.453 27.986-10.724 6.998-24.908 10.854-39.941 10.854-15.026 0-29.209-3.855-39.938-10.854-11.254-7.344-17.449-17.283-17.449-27.987 0-1.145 0.072-2.282 0.212-3.409-3.974-2.869-6.566-7.538-6.566-12.804 0-8.704 7.081-15.789 15.786-15.789 3.528 0 6.79 1.162 9.421 3.128 9.928-6.059 22.564-9.543 36.006-9.932l8.075-25.534c1.226-2.229 2.803-3.124 4.73-2.686 11.854 2.79 17.748 4.176 20.678 4.867 2.279-4.061 6.628-6.811 11.606-6.811 7.326 0 13.288 5.961 13.288 13.291s-5.962 13.291-13.288 13.291c-6.872 0-12.55-5.241-13.229-11.937l-17.276-4.065zM99.312 100.353c8.914-5.817 13.82-13.378 13.82-21.287 0-7.912-4.906-15.472-13.82-21.29-9.442-6.159-22.074-9.554-35.571-9.554-13.492 0-26.121 3.395-35.563 9.554-8.914 5.818-13.824 13.381-13.824 21.29s4.91 15.47 13.824 21.287c9.439 6.159 22.071 9.555 35.563 9.555 13.496-0.001 26.128-3.396 35.571-9.555zM118.55 67.373c0.911-1.274 1.451-2.837 1.451-4.521 0-4.295-3.496-7.79-7.79-7.79-0.937 0-1.836 0.166-2.668 0.472 4.021 3.573 7.053 7.57 9.007 11.839zM7.999 62.852c0 1.49 0.421 2.887 1.152 4.071 1.98-4.147 4.986-8.031 8.935-11.516-0.727-0.224-1.501-0.346-2.3-0.346-4.295 0.001-7.787 3.496-7.787 7.791zM106.303 18.093c-2.92 0-5.296 2.376-5.296 5.292 0 2.919 2.376 5.292 5.296 5.292 2.916 0 5.289-2.372 5.289-5.292 0-2.915-2.373-5.292-5.289-5.292z"></path>
<path class="path4" d="M82.757 89.502c1.026 0 2.048 0.392 2.829 1.173 1.563 1.563 1.563 4.097 0 5.659-5.508 5.497-14.021 6.308-21.431 6.318-7.404-0.011-15.918-0.821-21.426-6.318-1.563-1.563-1.563-4.097 0-5.659 0.781-0.781 1.804-1.173 2.83-1.173 1.022 0 2.044 0.392 2.826 1.173 3.888 3.889 10.786 4.374 15.771 4.374 4.99 0 11.888-0.485 15.775-4.374 0.781-0.781 1.803-1.173 2.826-1.173z"></path>
</symbol>
<symbol id="icon-social-skype" viewBox="0 0 128 128">
<path class="path1" d="M118.444 73.655c3.708 5.557 5.556 11.784 5.556 18.673 0 4.631-0.864 8.939-2.581 12.91-1.716 3.974-4.044 7.43-6.947 10.333-2.915 2.917-6.396 5.231-10.427 6.96-4.044 1.717-8.317 2.581-12.816 2.581-6.504 0-12.324-1.656-17.482-4.969-3.459 0.793-6.83 1.188-10.141 1.188-7.549 0-14.679-1.451-21.36-4.369-6.685-2.902-12.517-6.851-17.484-11.819-4.97-4.969-8.903-10.836-11.821-17.58-2.917-6.757-4.38-13.908-4.38-21.455 0-1.466 0.038-2.893 0.109-4.284 0.060-1.381 0.3-2.81 0.696-4.261-1.86-2.52-3.216-5.304-4.081-8.352-0.851-3.047-1.285-6.227-1.285-9.541 0-4.499 0.864-8.771 2.581-12.815 1.714-4.030 4.043-7.512 6.958-10.427 2.905-2.917 6.35-5.234 10.334-6.961 3.971-1.714 8.279-2.578 12.911-2.578 6.888 0 12.84 1.788 17.881 5.376 1.451-0.409 2.952-0.636 4.462-0.697 1.523-0.072 3.015-0.109 4.478-0.109 7.546 0 14.664 1.429 21.358 4.273 6.686 2.855 12.517 6.756 17.485 11.724s8.903 10.763 11.819 17.387 4.369 13.705 4.369 21.265c0 1.319 0 2.604 0 3.876 0.001 1.247-0.072 2.472-0.192 3.671zM96.784 86.772c0.925-3.59 0.601-7.226-0.996-10.933-1.453-3.708-3.576-6.659-6.348-8.844-2.784-2.185-5.94-3.937-9.444-5.268-3.504-1.321-7.248-2.389-11.232-3.18-3.972-0.793-7.944-1.716-11.915-2.772-3.973-0.936-6.553-2.389-7.752-4.381-1.189-1.979-1.32-3.935-0.396-5.854 0.924-1.92 2.652-3.613 5.173-5.064 2.507-1.465 5.423-2.185 8.734-2.185 3.181 0.133 5.964 0.889 8.354 2.28 2.376 1.392 4.523 2.916 6.456 4.572 1.918 1.655 3.635 3.109 5.158 4.368 1.381 1.141 2.68 1.71 3.895 1.71 0.127 0 0.254-0.006 0.379-0.018 1.451-0.134 2.782-0.768 3.971-1.897 1.188-1.116 1.992-2.483 2.389-4.068 0.396-1.596 0.301-3.347-0.301-5.268-0.586-1.919-2.014-3.803-4.259-5.664-3.852-3.443-8.353-5.952-13.513-7.547-3.656-1.119-7.906-1.682-12.749-1.682-2.009 0-4.118 0.097-6.331 0.291-2.915 0.264-5.76 0.959-8.544 2.088-2.784 1.127-5.292 2.651-7.549 4.573-2.253 1.918-4.104 4.295-5.568 7.151-1.463 2.842-2.313 6.131-2.58 9.827-0.396 3.72 0.301 6.959 2.089 9.744s4.164 5.159 7.151 7.151c2.976 1.992 6.325 3.576 10.033 4.776 3.708 1.188 7.283 2.052 10.727 2.58 2.389 0.396 4.896 0.984 7.55 1.788 2.65 0.792 4.836 1.777 6.552 2.976 1.727 1.188 2.818 2.652 3.287 4.369 0.455 1.728-0.3 3.708-2.292 5.963-1.847 2.125-4.044 3.48-6.553 4.069-1.75 0.417-3.466 0.625-5.148 0.625-0.742 0-1.475-0.041-2.207-0.121-2.375-0.265-4.596-0.793-6.647-1.597-2.064-0.792-3.552-1.451-4.476-1.98-0.924-0.527-1.861-1.356-2.784-2.484-0.925-1.128-1.98-2.255-3.179-3.384-1.19-1.115-2.449-2.111-3.77-2.975-1.143-0.75-2.45-1.119-3.893-1.119-0.225 0-0.448 0.008-0.68 0.025-1.858 0.132-3.371 0.733-4.572 1.789-1.188 1.057-1.957 2.388-2.28 3.971-0.335 1.598-0.133 3.373 0.589 5.365 0.731 1.991 2.087 3.973 4.080 5.965 1.86 1.847 3.803 3.442 5.868 4.763 2.040 1.333 4.369 2.46 6.948 3.373 2.579 0.935 5.531 1.571 8.845 1.896 1.845 0.181 3.867 0.276 6.053 0.276 1.72 0 3.542-0.059 5.465-0.182 4.502-0.131 8.736-1.128 12.721-2.976 3.971-1.86 7.307-4.236 10.032-7.15 2.712-2.914 4.533-6.167 5.459-9.731z"></path>
</symbol>
<symbol id="icon-social-soundcloud" viewBox="0 0 128 128">
<path class="path1" d="M112.935 59.426c4.425 0 8.050 1.668 10.855 4.994 2.807 3.34 4.21 7.396 4.21 12.154 0 4.568-1.234 8.474-3.704 11.713-2.469 3.24-6.434 5.047-11.878 5.425v0.288h-50.843v-52.579c4.761-4.947 10.733-7.421 17.883-7.421 7.151 0 13.281 2.562 18.401 7.709 5.106 5.149 8.082 11.537 8.935 19.146 2.211-0.954 4.256-1.429 6.141-1.429z"></path>
<path class="path2" d="M56.468 48c0.336-0.766 0.719-1.432 1.145-2.009 0.427-0.565 0.81-1.131 1.146-1.708v49.717h-7.914v-48.575c2.041 0.766 3.916 1.619 5.623 2.575z"></path>
<path class="path3" d="M44.713 44.282c0.505 0 1.055 0.051 1.662 0.14 0.594 0.099 1.146 0.15 1.651 0.15v49.428h-5.356v-49.428c0.504-0.189 1.189-0.29 2.043-0.29z"></path>
<path class="path4" d="M31.938 94v-45.436c1.695-1.331 3.492-2.285 5.367-2.851v48.287h-5.367z"></path>
<path class="path5" d="M21.206 64.284l1.021 0.575c0.674-3.613 2.123-7.144 4.346-10.57v39.711h-5.367v-29.716z"></path>
<path class="path6" d="M12.393 62.424c0.594-0.088 1.313-0.136 2.167-0.136 0.516 0 0.932 0.099 1.278 0.287v31.425h-1.278c-0.854 0-1.573-0.038-2.167-0.141-0.606-0.1-1.246-0.236-1.919-0.425v-30.582c0.673-0.191 1.313-0.326 1.919-0.428z"></path>
<path class="path7" d="M1.404 71.563c0.93-1.994 2.165-3.753 3.704-5.271v23.992c-3.413-3.429-5.108-7.421-5.108-11.99 0-2.486 0.459-4.721 1.404-6.731z"></path>
</symbol>
<symbol id="icon-social-spotify" viewBox="0 0 128 128">
<path class="path1" d="M63.986 4c33.151 0 60.014 26.861 60.014 59.986 0 33.151-26.863 60.014-60.014 60.014-33.124 0-59.986-26.863-59.986-60.014 0-33.125 26.862-59.986 59.986-59.986zM102.301 57.841c2.919 0 5.526-2.315 5.526-5.599-0.023-0.407-0.054-0.812-0.136-1.189-0.374-1.673-1.348-2.863-2.807-3.7-4.077-2.374-8.343-4.292-12.796-5.829-10.907-3.753-22.191-5.426-33.692-5.778-1.024-0.023-2.050-0.036-3.072-0.036-3.635 0-7.268 0.15-10.912 0.466-4.374 0.407-8.718 1.026-13.013 2.024-1.728 0.403-3.456 0.837-5.155 1.376-2.296 0.756-3.778 2.971-3.7 5.347 0.055 2.457 1.672 4.536 4.023 5.236 0.502 0.144 1.007 0.209 1.51 0.209 0.555 0 1.112-0.079 1.676-0.234 1.728-0.461 3.48-0.946 5.238-1.325 4.777-1.024 9.637-1.564 14.523-1.807 1.899-0.109 3.791-0.158 5.684-0.158 2.361 0 4.718 0.076 7.085 0.209 4.104 0.244 8.182 0.731 12.2 1.434 5.808 1.024 11.503 2.51 16.985 4.695 2.754 1.107 5.398 2.432 7.991 3.887 0.927 0.531 1.902 0.772 2.842 0.772zM98.758 74.054c1.135-1.889 0.864-4.886-1.563-6.37l-0.703-0.431c-4.67-2.754-9.585-4.943-14.741-6.589-9.051-2.897-18.291-4.306-27.741-4.306-1.207 0-2.417 0.024-3.63 0.067-4.968 0.191-9.879 0.756-14.74 1.837-1.972 0.431-3.939 0.944-5.885 1.539-1.891 0.568-3.104 2.293-3.157 4.265-0.056 1.889 1.108 3.674 2.888 4.403 0.557 0.223 1.131 0.322 1.711 0.322 0.537 0 1.075-0.088 1.607-0.242 6.857-2.024 13.878-2.89 20.734-2.915 5.508 0.025 10.666 0.513 15.792 1.484 6.671 1.241 13.094 3.267 19.142 6.342 1.322 0.677 2.619 1.433 3.889 2.162 0.784 0.442 1.624 0.656 2.444 0.656 1.569-0.001 3.065-0.786 3.953-2.224zM91.414 90.388c0.973-1.646 0.565-3.726-0.946-4.859-0.297-0.244-0.621-0.434-0.942-0.621-3.753-2.24-7.693-4.049-11.823-5.425-7.483-2.54-15.201-3.592-23.083-3.674-2.672 0.136-5.346 0.242-8.021 0.46-4.751 0.404-9.473 1.187-14.118 2.241-0.376 0.081-0.756 0.16-1.105 0.322-1.65 0.65-2.54 2.324-2.188 4.131 0.299 1.701 1.781 2.943 3.566 2.943 0.564-0.026 1.159-0.135 1.754-0.271 5.695-1.241 11.448-2.052 17.307-2.293 0.938-0.034 1.875-0.054 2.81-0.054 3.563 0 7.107 0.254 10.659 0.81 7.288 1.106 14.12 3.428 20.464 7.206 0.323 0.19 0.648 0.379 1 0.539 0.479 0.217 0.986 0.317 1.491 0.317 1.264 0.001 2.499-0.649 3.175-1.772z"></path>
</symbol>
<symbol id="icon-social-stumbleupon" viewBox="0 0 128 128">
<path class="path1" d="M70.479 43.583c0-1.775-0.621-3.343-1.864-4.703-1.241-1.36-2.751-2.041-4.526-2.041-1.896 0-3.463 0.681-4.704 2.041-1.243 1.36-1.864 2.928-1.864 4.703v40.834c0 4.023-0.771 7.722-2.308 11.096-1.541 3.373-3.611 6.301-6.214 8.786-2.605 2.487-5.654 4.44-9.143 5.858-3.492 1.421-7.19 2.13-11.096 2.13-4.023 0-7.782-0.735-11.273-2.216-3.492-1.479-6.541-3.521-9.143-6.127-2.603-2.603-4.645-5.651-6.123-9.143-1.482-3.488-2.221-7.247-2.221-11.274v-17.574h22.013v17.574c0 1.896 0.625 3.524 1.867 4.884 1.241 1.361 2.868 2.042 4.88 2.042 1.893 0 3.464-0.681 4.706-2.042 1.242-1.359 1.864-2.987 1.864-4.884v-39.944c0-3.905 0.739-7.602 2.22-11.096 1.478-3.489 3.521-6.537 6.124-9.144 2.603-2.6 5.651-4.673 9.143-6.212 3.491-1.536 7.247-2.309 11.273-2.309 3.905 0 7.604 0.772 11.096 2.309 3.489 1.539 6.538 3.612 9.144 6.212 2.603 2.606 4.643 5.654 6.126 9.144 1.478 3.494 2.217 7.19 2.217 11.096v7.989l-13.138 4.085-9.054-4.085v-7.989zM128 84.417c0 4.023-0.74 7.781-2.218 11.273-1.483 3.491-3.525 6.54-6.125 9.143-2.605 2.604-5.654 4.645-9.144 6.124-3.491 1.48-7.251 2.22-11.273 2.22-3.905 0-7.606-0.739-11.098-2.22-3.49-1.479-6.538-3.521-9.142-6.124-2.605-2.603-4.676-5.651-6.212-9.143-1.54-3.492-2.31-7.25-2.31-11.273v-18.107l9.054 4.081 13.138-4.081v18.107c0 2.012 0.622 3.637 1.864 4.88 1.241 1.243 2.81 1.864 4.705 1.864 2.010 0 3.641-0.621 4.884-1.864s1.863-2.868 1.863-4.88v-17.575h22.014v17.575z"></path>
</symbol>
<symbol id="icon-social-telegram" viewBox="0 0 128 128">
<path class="path1" d="M83.793 44.963c-6.511 5.887-33.901 30.511-34.208 30.784l-0.353 0.318-2.069 17.645c-0.978-3.093-5.385-17.529-6.544-21.329l43.174-27.418z"></path>
<path class="path2" d="M64.997 2c34.797 0 63.003 28.203 63.003 63 0 34.794-28.206 63-63.003 63-34.793 0-62.997-28.206-62.997-63 0-34.797 28.204-63 62.997-63zM102.619 33.381c0-2.529-1.46-3.966-3.904-3.966-1.818 0-3.736 0.794-3.996 0.904l-74.902 29.384c-1.679 0.582-4.4 2.235-4.080 4.79 0.37 2.979 3.853 4.247 4.022 4.305l18.237 6.141c0.999 3.271 5.634 18.461 6.63 21.604 0.585 1.857 1.209 3.128 1.884 3.838l0.55 0.447c0.138 0.079 0.277 0.139 0.418 0.178 0.348 0.133 0.712 0.2 1.086 0.2 1.091 0 1.887-0.563 2.036-0.676l11.492-10.47 18.275 14.012c1.227 0.534 2.278 0.774 3.269 0.774 3.969 0 5.483-3.672 5.546-3.827l13.437-67.638z"></path>
</symbol>
<symbol id="icon-social-tumblr" viewBox="0 0 128 128">
<path class="path1" d="M31.556 31.299c2.538-1.186 4.741-2.546 6.613-4.073 3.39-2.712 6.276-6.447 8.651-11.197 1.186-2.035 2.117-4.362 2.801-7 0.676-2.623 1.27-5.632 1.778-9.029h17.812v29.519h29.774v22.904h-29.774v32.826c0 3.733 0.042 6.661 0.132 8.78 0.082 2.128 0.378 3.777 0.89 4.965 0.851 2.035 2.542 3.899 5.090 5.599 1.358 0.848 2.803 1.44 4.327 1.779 1.525 0.339 3.217 0.512 5.089 0.512 3.39 0 6.652-0.47 9.794-1.402 3.143-0.932 6.324-2.499 9.549-4.708v20.357c-5.772 2.375-10.694 4.157-14.762 5.345-4.582 1.020-9.413 1.524-14.508 1.524-3.053 0-5.518-0.206-7.381-0.634-1.865-0.423-3.983-0.974-6.358-1.651-4.415-1.531-8.235-3.733-11.451-6.622-3.563-2.712-5.688-5.597-6.365-8.649-1.36-2.547-2.037-6.958-2.037-13.232v-44.789h-17.3v-18.073c2.541-0.843 5.089-1.865 7.636-3.051z"></path>
</symbol>
<symbol id="icon-social-twitter" viewBox="0 0 128 128">
<path class="path1" d="M88.521 11.004c-3.627-0.071-7.016 0.701-10.138 2.094-11.411 5.179-18.382 18.534-15.368 30.697-10.91-0.443-21.013-3.136-30.31-8.078-9.309-4.964-17.235-11.566-23.767-19.844-4.503 8.75-4.649 17.542-0.438 26.377 2.026 3.84 4.931 6.943 8.721 9.308-4.28-0.098-8.351-1.058-12.211-2.879 0 6.497 1.993 12.15 5.991 16.951 3.997 4.799 9.053 7.868 15.158 9.189-3.854 1.055-7.777 1.13-11.772 0.226 1.601 5.325 4.607 9.716 9.044 13.18 4.433 3.479 9.563 5.294 15.379 5.444-10.824 8.9-25.014 12.563-38.812 11.077 21.1 13.591 49.49 16.62 72.278 5.315 9.228-4.58 17.015-10.525 23.339-17.845 13.022-15.093 19.721-34.775 19.297-54.625 5.229-4.133 9.598-8.78 13.086-13.955-4.789 2.199-9.805 3.6-15.044 4.202 5.37-3.536 9.227-8.418 11.556-14.623-5.258 2.992-10.857 5.060-16.801 6.205 0.002 0-6.438-8.166-19.188-8.416z"></path>
</symbol>
<symbol id="icon-social-vimeo" viewBox="0 0 128 128">
<path class="path1" d="M37.667 9.58c5.529-0.946 9.663 1.052 12.402 5.991 9.692 15.904 8.279 38.988 14.307 56.659 1.509 4.423 3.167 6.635 4.98 6.635 1.809 0 4.256-2.057 7.335-6.173 5.604-7.502 18.522-24.049 11.044-33.999-4.807-4.276-9.967-4.334-15.484-0.178 2.978-18.224 24.797-37.224 43.554-28.195 39.991 19.379-29.536 94.714-48.802 107.053-10.512 7.124-21.741-1.458-26.26-11.242-6.882-15.199-10.413-32.289-15.39-48.183-1.329-4.236-2.535-7.857-3.621-10.87-3.596-9.957-9.713-6.697-16.662-1.383l-5.070-7.002c4.101-4.79 8.328-9.212 12.676-13.265 7.039-6.471 15.405-13.831 24.991-15.848 2.89-0.612-4.106 0.864 0 0 2.89-0.612-4.106 0.864 0 0 2.89-0.612-4.106 0.864 0 0 2.89-0.612-4.106 0.864 0 0 2.89-0.612-4.106 0.864 0 0 2.89-0.612-4.106 0.864 0 0 2.89-0.612-4.106 0.864 0 0 2.89-0.612-4.106 0.864 0 0 2.89-0.612-4.106 0.864 0 0 2.89-0.612-4.106 0.864 0 0 2.89-0.612-4.106 0.864 0 0z"></path>
</symbol>
<symbol id="icon-social-whatsapp" viewBox="0 0 128 128">
<path class="path1" d="M65.001 2c34.795 0 62.999 28.205 62.999 63 0 34.791-28.204 63-62.999 63-19.283 0-33.951-9.902-34.723-10.425l-23.688 7.732 7.688-22.936c-0.612-0.85-12.278-16.995-12.278-37.371 0-34.795 28.204-63 63.001-63zM100.109 94.259c4.453-4.808 3.425-9.803 3.338-11.472-0.086-1.674-1.508-1.916-1.582-1.93-0.614-0.297-12.288-5.953-14.813-7.104-0.595-0.272-1.119-0.376-1.576-0.376-1.484 0-2.199 1.048-2.235 1.104-0.187 0.234-3.728 4.709-4.925 6.25-0.91 1.17-1.524 2.24-3.133 2.24-0.511 0-1.123-0.107-1.879-0.355-3.125-1.028-9.394-4.402-14.513-8.993-5.12-4.588-9.035-10.661-10.149-12.5-1.111-1.843 0.109-2.941 0.172-2.999 0.163-0.187 3.242-3.735 4.794-5.738 1.554-1.999 0.586-4.234 0.214-5.136-0.368-0.902-5.35-12.609-6.081-14.259-0.727-1.65-2.23-1.912-2.309-1.926-0.243 0-4.854 0-5.908 0-1.057 0-2.984 1.221-3.085 1.285-6.071 3.886-7.1 12.959-7.276 14.917-0.179 1.957-0.357 6.112 2.846 13.112 3.204 6.999 11.036 16.492 20.705 25.511 9.672 9.018 24.5 12.897 28.984 14.15 0.828 0.23 1.826 0.345 2.93 0.345 4.88-0.001 11.851-2.203 15.481-6.126z"></path>
</symbol>
<symbol id="icon-social-wordpress" viewBox="0 0 128 128">
<path class="path1" d="M65 2c-34.739 0-63 28.261-63 62.997 0 34.739 28.261 63.003 63 63.003 34.736 0 63-28.264 63-63.003 0-34.736-28.264-62.997-63-62.997zM8.357 64.997c0-8.211 1.762-16.007 4.905-23.051l27.020 74.027c-18.896-9.179-31.925-28.556-31.925-50.976zM65 121.645c-5.561 0-10.928-0.815-16.004-2.31l16.998-49.383 17.408 47.698c0.115 0.281 0.256 0.539 0.406 0.781-5.886 2.074-12.212 3.214-18.808 3.214zM72.805 38.441c3.41-0.18 6.482-0.538 6.482-0.538 3.053-0.361 2.693-4.847-0.361-4.668 0 0-9.174 0.72-15.097 0.72-5.565 0-14.917-0.72-14.917-0.72-3.055-0.179-3.413 4.487-0.359 4.668 0 0 2.889 0.358 5.94 0.538l8.824 24.179-12.397 37.176-20.625-61.355c3.413-0.18 6.482-0.538 6.482-0.538 3.050-0.361 2.689-4.847-0.362-4.668 0 0-9.173 0.72-15.096 0.72-1.063 0-2.316-0.026-3.646-0.068 10.129-15.376 27.537-25.531 47.327-25.531 14.744 0 28.172 5.639 38.248 14.872-0.244-0.016-0.482-0.046-0.734-0.046-5.563 0-9.512 4.847-9.512 10.053 0 4.668 2.693 8.617 5.564 13.285 2.154 3.771 4.67 8.617 4.67 15.62 0 4.848-1.865 10.473-4.312 18.312l-5.649 18.876-20.47-60.887zM114.703 37.824c4.42 8.067 6.938 17.325 6.938 27.173 0 20.897-11.326 39.142-28.164 48.959l17.299-50.020c3.232-8.081 4.31-14.542 4.31-20.287-0.002-2.086-0.141-4.020-0.383-5.825z"></path>
</symbol>
<symbol id="icon-social-wordpress2" viewBox="0 0 128 128">
<path class="path1" d="M66.106 70.506l19.37 53.055c0.13 0.311 0.28 0.6 0.45 0.871-6.547 2.303-13.584 3.574-20.921 3.574-6.188 0-12.153-0.91-17.799-2.572l18.9-54.928z"></path>
<path class="path2" d="M2 65c0-9.139 1.962-17.809 5.456-25.646l30.062 82.346c-21.023-10.212-35.518-31.764-35.518-56.7z"></path>
<path class="path3" d="M107.53 61.817c0 5.396-2.073 11.652-4.786 20.371l-6.286 20.992-22.773-67.72c3.794-0.2 7.037-0.581 7.207-0.601 3.336-0.393 3.017-5.191-0.203-5.191-0.197 0.005-10.397 0.806-16.984 0.806-6.187 0-16.077-0.761-16.597-0.801-3.407-0.005-3.73 4.989-0.391 5.186 0.16 0.020 3.203 0.4 6.607 0.601l9.811 26.898-13.785 41.343-22.945-68.242c3.794-0.2 7.038-0.581 7.207-0.601 3.327-0.393 3.008-5.191-0.203-5.191-0.197 0.005-10.397 0.806-16.984 0.806-1.191 0-2.583-0.030-4.055-0.080 11.262-17.098 30.622-28.4 52.635-28.4 16.396 0 31.332 6.277 42.544 16.547-0.271-0.020-0.541-0.050-0.821-0.050-6.187 0-10.581 5.386-10.581 11.182 0 5.186 3.004 9.58 6.197 14.775 2.392 4.196 5.186 9.582 5.186 17.37z"></path>
<path class="path4" d="M96.678 119.457l19.241-55.638c3.593-8.989 4.794-16.177 4.794-22.563 0-2.322-0.159-4.475-0.43-6.477 4.925 8.969 7.717 19.269 7.717 30.221 0 23.244-12.592 43.535-31.322 54.457z"></path>
</symbol>
<symbol id="icon-social-yahoo" viewBox="0 0 128 128">
<path class="path1" d="M57.044 33.643h-17.13c1.937 2.753 4.026 5.636 6.271 8.641 2.242 3.008 4.436 5.914 6.576 8.716 2.143 2.805 4.129 5.404 5.965 7.799 1.834 2.396 3.363 4.36 4.587 5.889l22.785-20.643h-13.762l-1.836-7.957h50.005l-5.199 7.956h-9.021c-0.996 0.328-2.017 0.531-3.059 0.609-0.612 0.104-1.813 0.766-3.597 1.989-9.677 6.63-19.243 14.067-27.294 22.633-1.633 1.731-2.602 3.060-2.905 3.977-1.392 5.359-0.087 12.836 0.15 18.273 0.103 2.291 0.204 3.799 0.307 4.51 0.51 0.102 1.607 0.154 3.287 0.154 3.695 0 7.393 0 11.088 0 1.734 0 2.906 0.049 3.519 0.153l-0.306 5.81c-0.613-0.099-2.041-0.177-4.283-0.229-15.281-0.338-30.528 0.143-45.801 0.458-2.396 0.052-4.206 0.078-5.429 0.078l0.766-5.505c0.709-0.102 1.856-0.154 3.44-0.154 3.308 0.105 6.594-0.099 9.862-0.611 1.531-0.305 2.599-0.815 3.214-1.529 0.305-0.307 0.506-1.427 0.61-3.364 0.199-4.511 0.199-9.022 0-13.534-0.104-2.192-0.207-3.695-0.306-4.51-0.102-0.511-0.84-1.734-2.219-3.672-7.825-10.992-16.669-21.463-25.843-31.351-1.986-2.141-3.541-3.667-4.664-4.586h-16.822v-8.104h57.044v8.104zM110.105 101.544v-8.26l9.331 0.916-1.072 8.261-8.259-0.917zM128 53.677l-8.872 34.713-7.644-0.612-0.308-35.781 16.824 1.68z"></path>
</symbol>
<symbol id="icon-social-youtube" viewBox="0 0 128 128">
<path class="path1" d="M127.097 41.781c0.454 7.357 0.903 14.866 0.903 22.222 0 7.354-0.449 14.866-0.903 22.225-0.752 10.415-8.716 16.551-18.48 17.009-14.874 0.763-29.747 0.763-44.619 0.763-14.876 0-29.899 0-44.622-0.764-9.764-0.458-17.729-6.594-18.477-17.009-0.45-7.358-0.899-14.871-0.899-22.224 0-7.356 0.449-14.865 0.899-22.222 0.748-10.425 8.713-16.557 18.477-17.015 14.723-0.766 29.746-0.766 44.622-0.766 14.872 0 29.898 0 44.618 0.767 9.765 0.458 17.729 6.589 18.481 17.014zM49.064 81.394l34.134-17.395-34.134-17.389v34.784z"></path>
</symbol>
</defs>
</svg>
